<svg width="0" height="0" class="hidden">
  <symbol viewBox="0 0 136 217" fill="none" xmlns="http://www.w3.org/2000/svg" id="select">
  <path d="M14 67.8824L67.8824 14L121.765 67.8824M121.765 148.706L67.8824 202.588L14 148.706" stroke="#4A5568" stroke-width="26.9412" stroke-linecap="round" stroke-linejoin="round"/>
</symbol>

<symbol viewBox="0 0 108 108" fill="none" xmlns="http://www.w3.org/2000/svg" id="lock">
  <path d="M80.8237 35.9216H76.3335V26.9412C76.3335 14.5483 66.2754 4.49023 53.8825 4.49023C41.4896 4.49023 31.4315 14.5483 31.4315 26.9412V35.9216H26.9413C22.0021 35.9216 17.9609 39.9628 17.9609 44.902V89.804C17.9609 94.7432 22.0021 98.7844 26.9413 98.7844H80.8237C85.7629 98.7844 89.8041 94.7432 89.8041 89.804V44.902C89.8041 39.9628 85.7629 35.9216 80.8237 35.9216ZM53.8825 76.3334C48.9433 76.3334 44.9021 72.2922 44.9021 67.353C44.9021 62.4138 48.9433 58.3726 53.8825 58.3726C58.8217 58.3726 62.8629 62.4138 62.8629 67.353C62.8629 72.2922 58.8217 76.3334 53.8825 76.3334ZM40.4119 35.9216V26.9412C40.4119 19.4875 46.4288 13.4706 53.8825 13.4706C61.3362 13.4706 67.3531 19.4875 67.3531 26.9412V35.9216H40.4119Z" fill="#ae1100"/>
</symbol>


</svg>