<svg width="0" height="0" class="hidden">
  <symbol viewBox="0 0 40 40" fill="none"    xmlns="http://www.w3.org/2000/svg" id ="arrow-next">
    <path d="M40 20C40 8.95481 31.0452 0 20 0C8.95481 0 0 8.95481 0 20C0 31.0452 8.95481 40 20 40C31.0452 40 40 31.0452 40 20ZM18.4615 27.701L24.575 21.5385H10.1923V18.4615H24.575L18.4615 12.299L20.6442 10.1317L30.4365 20L20.6442 29.8683L18.4615 27.701Z" fill="blue"/>
  </symbol>

  <symbol viewBox="0 0 40 40" fill="none" xmlns="http://www.w3.org/2000/svg" id="arrow-prev">
    <path d="M0 20C0 31.0452 8.95481 40 20 40C31.0452 40 40 31.0452 40 20C40 8.95481 31.0452 0 20 0C8.95481 0 0 8.95481 0 20ZM21.5385 12.299L15.425 18.4615H29.8077V21.5385H15.425L21.5385 27.701L19.3558 29.8683L9.56346 20L19.3558 10.1317L21.5385 12.299Z" fill="blue"/>
  </symbol>


</svg>